<svg xmlns="http://www.w3.org/2000/svg"
    xmlns:xlink="http://www.w3.org/1999/xlink" viewBox="0 0 41 52">
    <path d="M 4.351 4.018 C 4.647 4.22 4.927 4.425 5.201 4.624 C 5.845 5.096 6.452 5.537 7.115 5.859 C 7.515 6.052 8.319 5.92 8.665 5.611 C 15.565 -0.529 24.457 -0.537 31.244 5.589 C 31.59 5.902 32.382 6.056 32.785 5.87 C 33.436 5.572 34.029 5.147 34.663 4.694 C 34.934 4.502 35.21 4.303 35.5 4.109 C 35.427 4.274 35.359 4.435 35.292 4.595 C 35.151 4.932 35.014 5.255 34.836 5.554 C 32.014 10.295 27.997 13.697 23.31 16.324 C 23.019 16.489 22.476 16.401 22.147 16.231 C 20.679 15.476 19.257 15.484 17.79 16.226 C 17.457 16.395 16.916 16.495 16.629 16.333 C 11.879 13.65 7.795 10.203 4.979 5.349 C 4.82 5.079 4.692 4.787 4.559 4.479 C 4.492 4.33 4.425 4.177 4.352 4.02 L 4.352 4.018 Z M 0.002 41.52 L 0.007 41.517 C 3.339 34.435 3.68 26.988 3.485 19.452 C 3.416 16.791 3.864 14.235 4.925 11.803 C 5.07 11.47 5.234 11.145 5.414 10.783 C 5.494 10.621 5.579 10.451 5.667 10.271 C 5.879 10.529 6.09 10.778 6.297 11.027 C 6.94 11.792 7.556 12.525 8.146 13.282 C 8.27 13.446 8.267 13.847 8.162 14.048 C 6.099 17.947 8.707 21.936 12.977 22.237 C 13.103 22.249 13.228 22.272 13.35 22.307 L 13.474 22.337 C 13.87 24.169 13.12 25.2 11.562 25.888 C 10.794 26.227 10.074 26.685 9.302 27.177 C 8.934 27.414 8.564 27.644 8.19 27.87 C 8.522 28.068 8.852 28.27 9.18 28.475 C 9.879 28.907 10.539 29.315 11.236 29.645 C 13.232 30.589 14.64 32.141 15.405 34.171 C 16.42 36.869 17.34 39.606 18.26 42.341 C 18.587 43.312 18.912 44.282 19.242 45.25 C 19.286 45.374 19.325 45.497 19.365 45.622 C 19.549 46.181 19.732 46.746 20.085 47.294 C 20.269 46.667 20.445 46.039 20.622 45.411 C 21.012 44.018 21.402 42.627 21.854 41.256 C 22.58 39.051 23.377 36.87 24.242 34.715 C 25.185 32.374 26.686 30.527 29.007 29.464 C 29.616 29.184 30.19 28.834 30.819 28.454 C 31.135 28.259 31.453 28.069 31.774 27.883 C 31.357 27.633 30.959 27.38 30.57 27.135 C 29.719 26.595 28.914 26.085 28.057 25.703 C 26.527 25.025 26.187 23.901 26.456 22.364 C 26.679 22.314 26.904 22.272 27.131 22.227 C 27.636 22.131 28.144 22.034 28.636 21.874 C 31.862 20.829 33.291 17.755 31.965 14.578 C 31.629 13.767 31.684 13.272 32.284 12.664 C 32.749 12.192 33.156 11.66 33.594 11.087 C 33.792 10.825 33.999 10.557 34.219 10.28 C 35.271 12 35.957 13.814 36.157 15.738 C 36.387 17.928 36.424 20.147 36.419 22.35 C 36.409 26.418 36.546 30.471 37.632 34.401 C 38.087 36.049 38.647 37.662 39.222 39.316 C 39.482 40.063 39.744 40.816 40 41.586 L 37.599 39.602 L 37.505 39.526 L 34.81 37.3 L 32.105 41.776 L 30.822 43.903 C 29.43 42.567 28.039 41.229 26.649 39.891 L 24.094 44.143 L 24.072 44.179 C 22.726 46.421 21.372 48.675 19.974 51 C 18.572 48.67 17.199 46.389 15.819 44.094 L 15.794 44.052 L 13.291 39.893 C 12.404 40.743 11.549 41.565 10.672 42.406 L 10.667 42.411 L 9.116 43.903 L 7.611 41.406 L 7.609 41.405 L 7.584 41.361 C 6.776 40.019 5.969 38.683 5.139 37.302 L 3.91 38.311 C 2.59 39.394 1.297 40.456 0.007 41.517 L 0 41.529 L 0.001 41.519 Z M 26.296 27.875 L 26.3 27.872 L 26.297 27.877 Z M 26.297 27.877 C 26.297 27.875 26.296 27.875 26.296 27.875 Z M 20.18 37.934 L 19.972 38.598 C 19.88 38.313 19.789 38.029 19.699 37.747 L 19.697 37.744 C 18.436 33.795 17.247 30.074 13.389 27.745 C 16.085 27.185 16.222 25.321 16.242 23.258 C 16.256 21.717 16.865 20.314 18.034 19.245 C 19.307 18.078 20.599 18.063 21.869 19.222 C 23.283 20.512 23.856 22.236 23.739 24.073 C 23.629 25.796 24.17 26.877 25.717 27.47 C 25.834 27.514 25.937 27.597 26.069 27.702 C 26.136 27.755 26.21 27.814 26.297 27.877 C 22.634 30.124 21.45 33.89 20.18 37.934 Z M 15.549 18.843 C 13.991 19.759 12.074 19.652 10.949 18.615 C 10.02 17.76 9.937 16.743 10.466 15.551 L 12.452 16.838 L 12.454 16.84 Z M 24.394 18.848 C 25.234 18.3 26.069 17.756 26.914 17.206 L 29.464 15.543 L 29.464 15.546 C 29.977 16.763 29.914 17.775 28.974 18.629 C 27.845 19.65 25.944 19.75 24.394 18.849 Z" fill="rgb(255,255,255)"/>
</svg>