<svg xmlns="http://www.w3.org/2000/svg"
    xmlns:xlink="http://www.w3.org/1999/xlink" viewBox="0 0 43 50">
    <path d="M 15.622 2.81 C 12.749 4.358 10.388 5.664 10.397 5.719 C 10.397 5.858 17.302 9.465 17.545 9.456 C 17.651 9.456 18.459 9.065 19.339 8.602 L 20.937 7.76 L 22.68 8.687 L 24.421 9.613 L 27.277 8.287 C 31.569 6.294 32.018 6.071 31.945 6.008 C 31.855 5.906 30.31 5.052 26.128 2.781 C 24.671 1.993 23.219 1.196 21.773 0.388 C 21.395 0.167 21.036 0 20.974 0 C 20.911 0 18.496 1.262 15.623 2.81 Z M 3.007 9.558 L 0.01 11.152 L 0.01 18.16 C 0.01 22.015 0.046 25.167 0.099 25.167 C 0.143 25.167 1.617 24.51 3.375 23.704 L 6.563 22.238 L 6.563 14.85 L 8.116 15.721 C 9.32 16.398 10.513 17.065 11.716 17.742 L 13.765 18.882 L 14.672 18.455 C 15.241 18.189 15.809 17.92 16.376 17.65 C 16.817 17.436 17.894 16.936 18.774 16.536 C 19.654 16.138 20.462 15.73 20.578 15.638 C 20.731 15.517 18.864 14.451 13.674 11.698 C 9.759 9.621 6.428 7.934 6.275 7.944 C 6.122 7.954 4.651 8.677 3.007 9.557 Z M 32.476 10.002 C 30.437 10.958 28.766 11.773 28.766 11.819 C 28.766 11.865 29.879 12.552 31.237 13.338 C 32.602 14.127 33.705 14.813 33.705 14.869 C 33.705 14.925 32.502 15.527 31.028 16.204 C 29.557 16.89 25.84 18.623 22.76 20.06 L 12.463 24.871 C 9.868 26.077 7.533 27.169 7.272 27.29 C 1.984 29.765 0.521 30.452 0.322 30.571 C 0.126 30.692 0.08 31.379 0.046 34.837 L 0 38.962 L 2.674 40.371 L 5.351 41.779 L 9.068 40.046 C 11.107 39.09 12.785 38.265 12.785 38.202 C 12.785 38.137 12.409 37.887 11.951 37.635 C 11.493 37.385 10.54 36.829 9.832 36.402 C 9.131 35.977 8.431 35.587 8.278 35.531 C 8.125 35.475 7.999 35.392 7.999 35.327 C 7.999 35.271 9.633 34.465 11.636 33.548 C 15.515 31.758 18.478 30.377 24.843 27.402 C 27.689 26.077 30.536 24.74 33.39 23.415 C 35.548 22.411 37.702 21.401 39.854 20.385 L 41.767 19.475 L 41.813 15.304 L 41.857 11.133 L 39.146 9.706 C 37.655 8.917 36.372 8.269 36.309 8.269 C 36.236 8.269 34.513 9.056 32.476 10.002 Z M 41.049 25.056 C 40.645 25.259 39.854 25.64 39.289 25.9 C 38.492 26.267 37.695 26.638 36.9 27.012 L 35.546 27.652 L 35.518 31.313 C 35.501 33.325 35.429 34.965 35.357 34.956 C 35.196 34.929 32.655 33.585 30.095 32.165 C 28.247 31.146 28.129 31.1 27.699 31.323 C 27.447 31.452 25.948 32.148 24.367 32.862 C 22.787 33.585 21.441 34.215 21.378 34.279 C 21.315 34.335 24.494 36.115 28.453 38.238 L 35.635 42.094 L 38.705 40.454 C 40.394 39.554 41.83 38.729 41.893 38.627 C 42.046 38.396 42.029 24.658 41.884 24.677 C 41.821 24.685 41.444 24.852 41.049 25.056 Z M 24.045 41.177 C 23.51 41.411 22.977 41.648 22.445 41.89 C 20.839 42.604 21.153 42.633 19.24 41.65 C 17.967 40.991 17.419 40.796 17.176 40.888 C 16.997 40.964 15.462 41.677 13.755 42.475 C 12.058 43.271 10.603 43.929 10.532 43.929 C 9.813 43.929 11.008 44.662 15.586 47.044 L 20.956 49.844 L 23.218 48.694 C 24.458 48.063 26.972 46.794 28.785 45.877 C 30.607 44.958 32.071 44.188 32.044 44.152 C 32.018 44.125 30.49 43.317 28.65 42.354 L 25.311 40.612 Z" fill="rgb(255,255,255)"/>
</svg>