<svg xmlns="http://www.w3.org/2000/svg"
    xmlns:xlink="http://www.w3.org/1999/xlink" viewBox="0 0 50 43">
    <path d="M 45.737 1.371 C 45.737 1.371 50.363 -0.447 49.977 3.968 C 49.849 5.786 48.693 12.149 47.793 19.032 L 44.709 39.419 C 44.709 39.419 44.451 42.406 42.139 42.925 C 39.826 43.445 36.357 41.107 35.715 40.588 C 35.201 40.198 26.079 34.355 22.866 31.498 C 21.967 30.718 20.94 29.16 22.995 27.342 L 36.486 14.357 C 38.028 12.798 39.569 9.162 33.146 13.577 L 15.158 25.915 C 15.158 25.915 13.103 27.213 9.248 26.045 L 0.897 23.448 C 0.897 23.448 -2.187 21.5 3.081 19.551 C 15.929 13.448 31.733 7.215 45.737 1.371 Z" fill="rgb(255, 255, 255)"/>
</svg>